<svg width="64" height="64" viewBox="0 0 64 64" fill="none" xmlns="http://www.w3.org/2000/svg">
<rect width="64" height="64" rx="8" fill="#FF507D" fill-opacity="0.25"/>
<path d="M14.5172 33.228C15.2353 24.2087 22.7991 17.0877 32 17.0877C41.2008 17.0877 48.7646 24.2087 49.4827 33.228H50.8899C50.1685 23.4342 41.9749 15.6842 32 15.6842C22.025 15.6842 13.8314 23.4342 13.1101 33.228H14.5172Z" fill="#FF507D"/>
<path d="M37.0981 16.386H26.9019C25.1899 16.8652 23.5762 17.579 22.0959 18.4912H25.138C27.247 17.5907 29.5651 17.0878 32 17.0878C34.4349 17.0878 36.753 17.5907 38.862 18.4913H41.9041C40.4238 17.579 38.81 16.8652 37.0981 16.386Z" fill="#D23C69"/>
<path d="M14.807 36.386H12.7017C12.3138 36.386 12 36.0718 12 35.6843V33.579C12 33.1915 12.3138 32.8773 12.7017 32.8773H14.807C15.1949 32.8773 15.5087 33.1915 15.5087 33.579V35.6843C15.5087 36.0718 15.1949 36.386 14.807 36.386ZM13.4035 34.9825H14.1052V34.2808H13.4035V34.9825Z" fill="#707487"/>
<path d="M50.5964 34.2807V34.9824H49.8947V34.2807H50.5964ZM51.2982 32.8772H49.1929C48.8054 32.8772 48.4912 33.1914 48.4912 33.5789V35.6842C48.4912 36.0717 48.8054 36.3859 49.1929 36.3859H51.2982C51.6857 36.3859 51.9999 36.0717 51.9999 35.6842V33.5789C52 33.1914 51.6857 32.8772 51.2982 32.8772Z" fill="#707487"/>
<path d="M50.2456 15.6842H13.7544V17.0877H50.2456V15.6842Z" fill="#464655"/>
<path d="M33.0526 18.1404H30.9473C30.5597 18.1404 30.2456 17.8262 30.2456 17.4387V15.3334C30.2456 14.9459 30.5598 14.6317 30.9473 14.6317H33.0526C33.4401 14.6317 33.7543 14.9459 33.7543 15.3334V17.4387C33.7543 17.8262 33.4401 18.1404 33.0526 18.1404Z" fill="#5B5D6E"/>
<path d="M13.7544 18.1403C14.7233 18.1403 15.5087 17.3549 15.5087 16.386C15.5087 15.4171 14.7233 14.6316 13.7544 14.6316C12.7855 14.6316 12 15.4171 12 16.386C12 17.3549 12.7855 18.1403 13.7544 18.1403Z" fill="#5B5D6E"/>
<path d="M50.2456 18.1403C51.2145 18.1403 52 17.3549 52 16.386C52 15.4171 51.2145 14.6316 50.2456 14.6316C49.2767 14.6316 48.4912 15.4171 48.4912 16.386C48.4912 17.3549 49.2767 18.1403 50.2456 18.1403Z" fill="#5B5D6E"/>
<path d="M33.573 19.8948H33.4036C33.016 19.8948 32.7019 20.209 32.7019 20.5965V34.6265C32.7019 34.8905 32.8507 35.1314 33.0874 35.2482C34.0302 35.7138 34.6337 36.7579 34.4095 37.9247C34.2319 38.8485 33.5025 39.6152 32.5859 39.827C30.975 40.1992 29.544 38.9859 29.544 37.4385C29.544 36.4717 30.1063 35.6436 30.9193 35.245C31.154 35.13 31.2984 34.8878 31.2984 34.6265V20.5965C31.2984 20.2089 30.9841 19.8948 30.5966 19.8948H30.4272C30.1124 19.8948 29.8363 20.1042 29.7514 20.4074L25.1424 36.8678C25.0413 37.2291 25.0868 37.6123 25.2729 37.9381C25.9209 39.0721 27.557 42.042 29.1931 45.8597H34.8072C36.4434 42.042 38.0795 39.072 38.7273 37.9381C38.9135 37.6124 38.9589 37.2291 38.8578 36.8678L34.249 20.4074C34.1641 20.1042 33.8878 19.8948 33.573 19.8948Z" fill="#C7CFE2"/>
<path d="M32.7017 20.5965V34.6264C32.7017 34.8904 32.8505 35.1314 33.0872 35.2482C33.7896 35.595 34.3024 36.2633 34.4262 37.0639L33.4035 19.8947C33.0159 19.8947 32.7017 20.209 32.7017 20.5965Z" fill="#AFB9D2"/>
<path d="M35.5088 49.3684H28.4913C28.1037 49.3684 27.7896 49.0542 27.7896 48.6667V46.5615C27.7896 46.1739 28.1038 45.8597 28.4913 45.8597H35.5088C35.8964 45.8597 36.2106 46.174 36.2106 46.5615V48.6667C36.2106 49.0542 35.8964 49.3684 35.5088 49.3684Z" fill="#FF507D"/>
<path d="M30.5966 48.6667V46.5615C30.5966 46.1739 30.9108 45.8597 31.2983 45.8597H28.4913C28.1037 45.8597 27.7896 46.174 27.7896 46.5615V48.6667C27.7896 49.0543 28.1038 49.3684 28.4913 49.3684H31.2983C30.9108 49.3685 30.5966 49.0543 30.5966 48.6667Z" fill="#D23C69"/>
<path d="M30.7548 43.9634C30.1116 41.8982 29.2289 39.4448 28.7795 38.2181C28.5895 37.6993 28.5264 37.1468 28.5923 36.5982L30.5966 19.8948H30.4272C30.1124 19.8948 29.8362 20.1042 29.7514 20.4074L25.1424 36.8678C25.0412 37.2291 25.0868 37.6124 25.273 37.9381C25.9209 39.0721 27.5571 42.0421 29.1931 45.8597H34.8072C35.0137 45.3776 35.2203 44.9092 35.425 44.4562H31.424C31.1159 44.4562 30.8463 44.2574 30.7548 43.9634Z" fill="#AFB9D2"/>
</svg>
