<svg width="64" height="64" viewBox="0 0 64 64" fill="none" xmlns="http://www.w3.org/2000/svg">
<rect width="64" height="64" rx="8" fill="#A5EAD6" fill-opacity="0.25"/>
<path d="M31.9999 47.1573L12 26.9926L19.6393 16.8431H44.3607L52 26.9926L31.9999 47.1573Z" fill="#82DCC7"/>
<path d="M52 26.9929L32 47.1573L42.3911 26.9929H52Z" fill="#82DCC7"/>
<path d="M32 26.9929V47.1573L42.3911 26.9929H32Z" fill="#95E5D0"/>
<path d="M19.6393 16.8428L21.6089 26.9929H12L19.6393 16.8428Z" fill="#95E5D0"/>
<path d="M21.6089 26.9929H31.9999V16.8428L21.6089 26.9929Z" fill="#A5EAD6"/>
<path d="M44.3607 16.8428L52 26.9929H42.3911L44.3607 16.8428Z" fill="#74CBB4"/>
<path d="M21.6091 26.9929L32.0001 47.1573V26.9929H21.6091Z" fill="#74CBB4"/>
<path d="M32 16.8428L21.609 26.9929L19.6394 16.8428H32Z" fill="#74CBB4"/>
<path d="M32 16.8428L42.3911 26.9929L44.3607 16.8428H32Z" fill="#A5EAD6"/>
</svg>
