<svg width="64" height="64" viewBox="0 0 64 64" fill="none" xmlns="http://www.w3.org/2000/svg">
<rect width="64" height="64" rx="8" fill="#5CB0FF" fill-opacity="0.25"/>
<g clip-path="url(#clip0_36_4281)">
<path d="M44.0084 40.0601C44.0084 37.1831 41.6672 34.8418 38.7901 34.8418C35.913 34.8418 33.5718 37.1831 33.5718 40.0601C33.5718 42.9372 35.913 45.2785 38.7901 45.2785C41.6672 45.2785 44.0084 42.9372 44.0084 40.0601Z" fill="#5CB0FF"/>
<path d="M29.8445 44.533V30.369H37.8563C37.859 30.5158 37.8692 30.6593 37.8692 30.8073C37.8692 31.2193 38.2027 31.5527 38.6147 31.5527C39.0268 31.5527 39.3602 31.2193 39.3602 30.8073C39.3602 30.6593 39.349 30.5159 39.3463 30.369H44.0085H45.0612H45.4995C45.4995 21.737 38.4764 14.714 29.8445 14.714H28.3535V14.7895C20.4188 15.5433 14.1895 22.2403 14.1895 30.369C14.1895 39.0009 21.2125 46.024 29.8445 46.024C30.2565 46.024 30.5899 45.6906 30.5899 45.2785C30.5899 44.8665 30.2565 44.533 29.8445 44.533ZM28.3535 44.2862C24.6394 43.0864 21.8197 37.5034 21.8197 30.8073C21.8197 30.6593 21.8299 30.5158 21.8326 30.369H28.3535V44.2862ZM21.9084 28.878C22.3901 23.0622 25.0035 18.4111 28.3535 17.329V28.8781L21.9084 28.878ZM29.8445 28.878V17.0822C33.8855 17.0822 37.2293 22.2224 37.7805 28.878H29.8445ZM43.9284 28.878H39.275C38.8299 23.2905 36.4869 18.648 33.3113 16.652C38.9803 18.0864 43.3033 22.9324 43.9284 28.878ZM26.3776 16.652C23.202 18.648 20.859 23.2905 20.4139 28.878H15.7605C16.3856 22.9324 20.7086 18.0864 26.3776 16.652ZM15.6804 30.369H20.3426C20.3399 30.5159 20.3287 30.6593 20.3287 30.8073C20.3287 36.1249 22.0465 40.8073 24.6382 43.5289C19.3994 41.4486 15.6804 36.3398 15.6804 30.369Z" fill="#1C71DA"/>
<path d="M47.6921 47.9081L44.0272 44.2432C44.9461 43.095 45.4994 41.642 45.4994 40.0602C45.4994 36.3605 42.4898 33.351 38.7901 33.351C35.0904 33.351 32.0808 36.3605 32.0808 40.0602C32.0808 43.76 35.0904 46.7695 38.7901 46.7695C40.3718 46.7695 41.8248 46.2162 42.973 45.2973L46.638 48.9623L47.6921 47.9081ZM33.5717 40.0602C33.5717 37.1831 35.913 34.8419 38.7901 34.8419C41.6672 34.8419 44.0084 37.1831 44.0084 40.0602C44.0084 42.9373 41.6672 45.2786 38.7901 45.2786C35.913 45.2786 33.5717 42.9373 33.5717 40.0602Z" fill="#1C71DA"/>
<path d="M12.7455 17.6628C12.5547 17.6628 12.3638 17.59 12.2184 17.4444C11.9272 17.1533 11.9272 16.6812 12.2184 16.3902L14.8541 13.7547C15.1453 13.4635 15.6175 13.4635 15.9083 13.7547C16.1995 14.0457 16.1995 14.5178 15.9083 14.8088L13.2725 17.4444C13.127 17.59 12.9362 17.6628 12.7455 17.6628Z" fill="#FF5D5D"/>
<path d="M15.3812 17.6628C15.1905 17.6628 14.9997 17.59 14.8541 17.4444L12.2184 14.8088C11.9272 14.5178 11.9272 14.0457 12.2184 13.7547C12.5092 13.4635 12.9814 13.4635 13.2725 13.7547L15.9083 16.3902C16.1995 16.6812 16.1995 17.1533 15.9083 17.4444C15.7629 17.59 15.5719 17.6628 15.3812 17.6628Z" fill="#FF5D5D"/>
<path d="M14.6092 50.4637C13.1705 50.4637 12 49.2932 12 47.8545C12 46.4158 13.1705 45.2454 14.6092 45.2454C16.0479 45.2454 17.2183 46.4158 17.2183 47.8545C17.2183 49.2932 16.0479 50.4637 14.6092 50.4637ZM14.6092 46.7363C13.9925 46.7363 13.491 47.2379 13.491 47.8545C13.491 48.4711 13.9925 48.9727 14.6092 48.9727C15.2258 48.9727 15.7274 48.4711 15.7274 47.8545C15.7274 47.2379 15.2258 46.7363 14.6092 46.7363Z" fill="#00D40B"/>
<path d="M49.1461 24.1163C48.9485 24.1163 48.7588 24.0377 48.6191 23.8979L46.5104 21.7892C46.3706 21.6495 46.292 21.4598 46.292 21.2622C46.292 21.0645 46.3706 20.8749 46.5104 20.7351L48.6191 18.6266C48.9103 18.3354 49.382 18.3354 49.6732 18.6266L51.7817 20.7351C52.0729 21.0261 52.0729 21.4982 51.7817 21.7892L49.6732 23.8979C49.5334 24.0377 49.3438 24.1163 49.1461 24.1163ZM48.0918 21.2622L49.1461 22.3165L50.2005 21.2622L49.1461 20.2079L48.0918 21.2622Z" fill="#FFC504"/>
</g>
<defs>
<clipPath id="clip0_36_4281">
<rect width="40" height="40" fill="white" transform="translate(12 12)"/>
</clipPath>
</defs>
</svg>
