<svg width="64" height="64" viewBox="0 0 64 64" fill="none" xmlns="http://www.w3.org/2000/svg">
<rect width="64" height="64" rx="8" fill="#00EE7A" fill-opacity="0.25"/>
<g clip-path="url(#clip0_38_4355)">
<path d="M35.3468 30.7797L27.2655 25.0468C26.3979 24.431 25.1952 24.6354 24.5795 25.5034L24.4998 25.6155C23.8844 26.4832 24.0886 27.6858 24.9565 28.3015L33.0376 34.0348C33.9055 34.6503 35.1079 34.446 35.7237 33.5782L35.8032 33.4659C36.4192 32.598 36.2145 31.3954 35.3468 30.7797Z" fill="#F39A2B"/>
<path d="M34.8541 28.5388L34.7419 28.4593C33.874 27.8436 32.6714 28.0481 32.0557 28.9159L22.8986 41.8232C22.2829 42.6909 22.4874 43.8937 23.3553 44.5092L23.4674 44.5889C24.3353 45.2046 25.5379 45.0002 26.1534 44.1323L35.3106 31.225C35.9265 30.357 35.722 29.1546 34.8541 28.5388Z" fill="#E5594F"/>
<path d="M46.8305 32.5127C46.8164 34.47 46.514 36.0974 45.7562 38.08C45.2394 39.4325 44.0285 41.29 43.0012 42.4202C40.5405 45.1276 37.045 46.8456 33.5961 47.1707C29.6596 47.5419 26.189 46.488 22.9989 44.1024C23.2977 44.3259 22.7045 43.852 22.7231 43.8676C22.5449 43.7184 22.3728 43.5622 22.2009 43.4058C21.857 43.0931 21.5327 42.7599 21.2155 42.4204C20.5066 41.6614 20.1925 41.228 19.5968 40.2772C18.5378 38.5872 18.0068 37.1412 17.6043 35.1C17.4475 34.305 17.3936 33.5452 17.3861 32.5128C17.3654 29.6484 12.9217 29.6464 12.9425 32.5128C13.0052 41.2037 18.9619 48.9248 27.3992 51.0954C35.8555 53.2711 44.9398 49.1713 49.0363 41.504C50.5111 38.7437 51.2518 35.6359 51.2743 32.5127C51.2949 29.6463 46.8512 29.6483 46.8305 32.5127Z" fill="#1B92D1"/>
<path d="M17.386 31.5885C17.4002 29.6313 17.7025 28.004 18.4603 26.0213C18.9772 24.6689 20.1882 22.8114 21.2154 21.6812C23.6761 18.9738 27.1713 17.2558 30.6204 16.9306C34.5568 16.5595 38.0277 17.6133 41.2177 19.9991C40.9188 19.7756 41.5119 20.2494 41.4934 20.2339C41.6716 20.383 41.8437 20.5394 42.0157 20.6957C42.3596 21.0082 42.684 21.3416 43.0012 21.681C43.71 22.44 44.0241 22.8735 44.6198 23.8242C45.6789 25.5142 46.21 26.9602 46.6124 29.0013C46.7692 29.7963 46.8232 30.5562 46.8306 31.5885C46.8512 34.453 51.2949 34.4551 51.2743 31.5885C51.2115 22.8975 45.2545 15.1766 36.8173 13.0059C28.361 10.8301 19.2769 14.9301 15.1804 22.5973C13.7057 25.3576 12.965 28.4653 12.9425 31.5885C12.9216 34.4551 17.3653 34.453 17.386 31.5885Z" fill="#00EE7A"/>
</g>
<defs>
<clipPath id="clip0_38_4355">
<rect width="40" height="40" fill="white" transform="translate(12 12)"/>
</clipPath>
</defs>
</svg>
