<svg width="64" height="64" viewBox="0 0 64 64" fill="none" xmlns="http://www.w3.org/2000/svg">
<rect width="64" height="64" rx="6" fill="#1B92D1" fill-opacity="0.25"/>
<path d="M45.9404 18.3711C41.5109 20.2057 22.518 28.0728 17.2703 30.2169C13.751 31.5903 15.8112 32.878 15.8112 32.878C15.8112 32.878 18.8154 33.908 21.3909 34.6806C23.966 35.4531 25.3394 34.5949 25.3394 34.5949L37.4426 26.4402C41.7345 23.5216 40.7045 25.925 39.6742 26.9553C37.4426 29.1873 33.7515 32.7063 30.6612 35.5392C29.2878 36.7408 29.9744 37.7708 30.5756 38.286C32.8072 40.1745 38.902 44.0373 39.2451 44.2947C41.0584 45.5785 44.6253 47.4264 45.1678 43.5222L47.3138 30.0456C48.0007 25.4962 48.6872 21.29 48.7729 20.0883C49.0306 17.1694 45.9404 18.3711 45.9404 18.3711Z" fill="#1B92D1"/>
</svg>
