<svg width="168" height="168" viewBox="0 0 168 168" fill="none" xmlns="http://www.w3.org/2000/svg">
<rect width="168" height="168" rx="6" fill="#1B92D1" fill-opacity="0.25"/>
<path d="M108.783 59.7708C100.908 63.0323 67.143 77.0182 57.8137 80.83C51.557 83.2716 55.2198 85.5609 55.2198 85.5609C55.2198 85.5609 60.5606 87.392 65.1391 88.7654C69.717 90.1388 72.1586 88.6131 72.1586 88.6131L93.6754 74.1158C101.306 68.9273 99.4745 73.2 97.6428 75.0316C93.6754 78.9996 87.1135 85.2556 81.6198 90.2918C79.1782 92.4281 80.3986 94.2591 81.4674 95.175C85.4348 98.5324 96.27 105.4 96.8799 105.857C100.104 108.139 106.445 111.425 107.409 104.484L111.224 80.5254C112.445 72.4377 113.666 64.96 113.818 62.8236C114.276 57.6345 108.783 59.7708 108.783 59.7708Z" fill="#1B92D1"/>
</svg>
